<?xml version="1.0" encoding="UTF-8" standalone="no"?>
<svg
   xmlns:dc="http://purl.org/dc/elements/1.1/"
   xmlns:cc="http://creativecommons.org/ns#"
   xmlns:rdf="http://www.w3.org/1999/02/22-rdf-syntax-ns#"
   xmlns:svg="http://www.w3.org/2000/svg"
   xmlns="http://www.w3.org/2000/svg"
   xmlns:xlink="http://www.w3.org/1999/xlink"
   xmlns:sodipodi="http://sodipodi.sourceforge.net/DTD/sodipodi-0.dtd"
   xmlns:inkscape="http://www.inkscape.org/namespaces/inkscape"
   width="210mm"
   height="297mm"
   viewBox="0 0 210 297"
   version="1.1"
   id="svg8"
   inkscape:version="1.0.1 (3bc2e813f5, 2020-09-07)"
   sodipodi:docname="icon.svg">
  <defs
     id="defs2">
    <linearGradient
       inkscape:collect="always"
       id="linearGradient918">
      <stop
         style="stop-color:#003a08;stop-opacity:1"
         offset="0"
         id="stop914" />
      <stop
         style="stop-color:#008484;stop-opacity:1"
         offset="1"
         id="stop916" />
    </linearGradient>
    <linearGradient
       inkscape:collect="always"
       id="Fill">
      <stop
         style="stop-color:#008011;stop-opacity:1"
         offset="0"
         id="stop883" />
      <stop
         style="stop-color:#00c5c5;stop-opacity:1"
         offset="1"
         id="stop885" />
    </linearGradient>
    <linearGradient
       inkscape:collect="always"
       xlink:href="#Fill"
       id="linearGradient892"
       gradientUnits="userSpaceOnUse"
       x1="-110.82261"
       y1="218.16785"
       x2="24.644051"
       y2="218.16785"
       gradientTransform="matrix(1,0,0,1.0132684,2.7922538,-1.2622827)" />
    <linearGradient
       inkscape:collect="always"
       xlink:href="#linearGradient918"
       id="linearGradient912"
       x1="-110.82261"
       y1="82.701195"
       x2="24.644051"
       y2="82.701195"
       gradientUnits="userSpaceOnUse"
       gradientTransform="matrix(1,0,0,1.0132684,2.7922538,-1.2622827)" />
  </defs>
  <sodipodi:namedview
     id="base"
     pagecolor="#ffffff"
     bordercolor="#666666"
     borderopacity="1.0"
     inkscape:pageopacity="0.0"
     inkscape:pageshadow="2"
     inkscape:zoom="1.4"
     inkscape:cx="-245.36673"
     inkscape:cy="561.56967"
     inkscape:document-units="mm"
     inkscape:current-layer="layer1"
     inkscape:document-rotation="0"
     showgrid="false"
     showguides="false"
     showborder="false" />
  <metadata
     id="metadata5">
    <rdf:RDF>
      <cc:Work
         rdf:about="">
        <dc:format>image/svg+xml</dc:format>
        <dc:type
           rdf:resource="http://purl.org/dc/dcmitype/StillImage" />
        <dc:title></dc:title>
      </cc:Work>
    </rdf:RDF>
  </metadata>
  <g
     inkscape:label="Layer 1"
     inkscape:groupmode="layer"
     id="layer1">
    <path
       id="path870"
       style="fill:url(#linearGradient892);fill-opacity:1;stroke:url(#linearGradient912);stroke-width:1.07204;stroke-miterlimit:4;stroke-dasharray:none;stroke-opacity:1"
       d="m -41.889387,82.658904 c -16.625157,0.534297 -33.037477,7.395394 -44.966797,19.186786 -2.39652,2.34904 -4.70175,4.85623 -6.66406,7.56588 -0.91787,1.55513 -0.15793,3.733 1.46987,4.43556 1.36625,0.69488 3.15051,0.22735 3.99417,-1.07216 4.0309,-4.68583 8.33626,-9.22144 13.49198,-12.64931 7.9302,-5.525897 17.16434,-9.137464 26.693332,-10.400214 4.073233,-0.463828 8.180107,-0.521068 12.301818,-0.369471 5.600156,0.247166 11.245907,1.607138 16.598353,3.485433 10.8933548,3.894241 20.8515688,10.524862 28.5612138,19.261112 0.152585,0.31699 1.2610302,1.06221 0.4595732,0.97224 -1.6108462,0.0813 -3.3010622,-0.035 -4.8383552,0.49772 -2.084299,1.06209 -2.106104,4.47989 -0.08791,5.6313 1.253197,0.71145 2.758108,0.42153 4.13042,0.54758 2.8846702,0.0254 5.8029642,0.19098 8.6596712,-0.28209 1.299319,-0.31082 2.3578,-1.54737 2.24289,-2.93782 0.186774,-3.48136 0.237377,-6.99321 -0.142461,-10.4594 -0.459854,-2.12075 -3.333573,-3.33061 -5.014344,-1.83804 -0.821724,0.65165 -1.182193,1.72048 -1.272179,2.74135 C 9.7916138,102.8186 5.5730658,98.895626 0.80486976,95.735838 -10.608158,87.875916 -24.155767,82.98493 -38.008152,82.654654 c -1.293822,-0.03181 -2.58741,-0.02578 -3.881238,0.0043 z m 1.273438,23.247776 c -1.667312,0.0318 -3.334679,0.0613 -5.001953,0.0951 -1.654339,1.08046 -3.494637,2.41033 -3.816344,4.53267 -0.400137,1.70359 -0.329427,3.467 -0.414125,5.2042 -2.864815,0.81681 -5.563653,2.10819 -8.242183,3.40196 -1.64348,-1.51139 -3.09263,-3.51195 -5.32221,-4.14244 -2.2302,-0.57143 -4.6819,0.24901 -6.20313,1.98272 -2.01034,1.87951 -4.07645,3.75542 -5.69664,5.99695 -1.10271,1.8758 -1.24534,4.40397 0.052,6.22414 0.83101,1.37472 1.99963,2.48618 3.06256,3.6712 -1.31399,2.61263 -2.49545,5.3041 -3.34765,8.1101 -2.45985,0.007 -5.23154,-0.19986 -7.26247,1.4801 -1.72122,1.43416 -2.2869,3.80812 -2.16564,5.97962 10e-4,2.72014 -0.21281,5.49083 0.36859,8.16636 0.66208,2.33603 2.92485,4.00863 5.30573,4.06623 1.28388,0.14125 2.57615,0.17059 3.86512,0.24256 0.84534,2.84721 1.97145,5.60709 3.33203,8.24072 -1.72307,1.73596 -3.83196,3.50611 -4.14453,6.11326 -0.28118,2.0757 0.64799,4.13247 2.09349,5.56901 1.78903,2.01641 3.65482,3.99171 5.74823,5.68558 2.02106,1.42693 4.97254,1.3717 6.83672,-0.31346 1.08192,-0.82855 2.00561,-1.84097 2.98171,-2.78947 2.64542,1.39194 5.38921,2.60926 8.24219,3.49499 0.08888,2.01754 -0.306117,4.17997 0.5643,6.07021 0.994225,2.07318 3.21817,3.47523 5.507258,3.33449 2.952062,0.0912 5.93519,0.30226 8.869237,-0.1158 2.237472,-0.48525 4.01573,-2.47783 4.305533,-4.77383 0.312416,-1.52947 0.31425,-3.09758 0.419688,-4.64767 2.795047,-0.89895 5.511852,-2.04609 8.115234,-3.41187 1.720355,1.75483 3.475286,3.90065 6.058594,4.22328 2.101495,0.28553 4.158112,-0.71949 5.613433,-2.20655 2.0396218,-1.85933 4.0902628,-3.77284 5.6787158,-6.05351 1.263039,-2.09519 1.033175,-4.98825 -0.63208,-6.79637 -0.798203,-1.02135 -1.741232,-1.91095 -2.628819,-2.84993 1.363867,-2.56937 2.481004,-5.26957 3.384766,-8.03886 1.883603,-0.15256 3.964493,0.0963 5.79198396,-0.62621 2.29273504,-1.1175 3.87522804,-3.64854 3.67839604,-6.25089 0.0057,-2.86957 0.195826,-5.7732 -0.266658,-8.61557 -0.646104,-2.43916 -3.030683,-4.18701 -5.48821,-4.291 -1.308925,-0.15106 -2.628415,-0.0509 -3.942075,-0.078 -0.828797,-2.90872 -1.991182,-5.71196 -3.33789,-8.41092 1.556636,-1.7597 3.685792,-3.34246 4.085937,-5.82432 0.37907,-1.76445 -0.08891,-3.67501 -1.303707,-5.00969 -1.696002,-2.18767 -3.680485,-4.1406 -5.7392758,-5.97319 -1.361729,-1.17023 -3.220915,-1.84767 -4.971953,-1.54147 -2.181221,0.30009 -3.620221,2.18757 -5.151739,3.58673 -0.330628,0.79459 -0.975889,0.10586 -1.495214,-0.0807 -2.267094,-1.1084 -4.556128,-2.21324 -6.992408,-2.88962 -0.156792,-2.26817 0.118755,-4.71575 -0.966382,-6.79332 -1.109983,-1.94337 -3.348902,-2.98888 -5.52345,-2.9175 -1.299637,-0.0836 -2.603474,-0.0328 -3.904699,-0.03 z m -1.271485,6.38834 c 1.645189,0.0371 3.290364,0.0753 4.935547,0.11281 0.135935,2.42872 0.04342,4.904 0.53125,7.28881 0.770842,1.53826 2.652506,1.70735 4.099646,2.19302 3.322138,0.9729 6.338689,2.5438 9.290902,4.31319 1.435141,0.7528 3.032744,-0.18987 4.042265,-1.23299 1.191134,-1.06114 2.264305,-2.25509 3.502734,-3.26251 1.526671,1.51585 3.07785,3.12186 4.326172,4.83479 -1.455544,1.8629 -3.47419,3.27134 -4.626953,5.36913 -0.508289,1.37476 0.460833,2.67413 1.000359,3.86938 1.815565,3.20088 3.064188,6.7051 3.84925,10.30253 0.397099,1.27892 1.6770838,2.09164 2.9740128,2.04992 1.945942,0.19598 3.910103,-0.0297 5.854112,0.20222 0.222669,2.1388 0.244994,4.36769 0.101563,6.51104 -2.221144,0.23799 -4.517308,-0.18441 -6.696771,0.43076 -1.3548578,0.27003 -2.0091408,1.66303 -2.1871368,2.92392 -0.622174,2.53456 -1.642657,4.96219 -2.768828,7.30713 -0.522889,1.24725 -1.432502,2.30458 -1.85796,3.58855 -0.410468,1.24288 -0.04329,2.67344 0.933583,3.53835 1.104507,1.28019 2.390812,2.39205 3.434535,3.72742 -1.397945,1.6539 -2.966581,3.2716 -4.611328,4.60324 -1.338398,-1.16061 -2.49904,-2.51871 -3.835951,-3.68289 -0.907489,-0.82298 -2.14654,-1.46083 -3.379472,-1.0335 -1.855678,0.63249 -3.421094,1.9094 -5.246394,2.62812 -2.252045,1.05137 -4.673334,1.68264 -7.068276,2.2496 -1.2413,0.39458 -1.884697,1.69102 -1.955666,2.93539 -0.277873,1.96149 -0.01955,3.97213 -0.227132,5.92572 -2.146943,0.0875 -4.336663,0.12694 -6.421875,-0.13457 -0.307984,-2.29811 0.242714,-4.72097 -0.553662,-6.9405 -0.813777,-1.70492 -2.889257,-1.94291 -4.448453,-2.46125 -3.098497,-0.9295 -6.017073,-2.4362 -8.735493,-4.09349 -1.37239,-0.66546 -2.98774,-0.0492 -3.98218,1.0119 -1.22171,1.06672 -2.27777,2.31856 -3.54584,3.33226 -1.65129,-1.41034 -3.15872,-2.98769 -4.5625,-4.64877 1.03843,-1.20221 2.18818,-2.30264 3.27193,-3.46458 0.92385,-0.99051 1.84823,-2.30957 1.42143,-3.74704 -0.57376,-1.9087 -1.86152,-3.49394 -2.57937,-5.34615 -1.03589,-2.24613 -1.66017,-4.65336 -2.19797,-7.06045 -0.47969,-1.37964 -1.92398,-2.13354 -3.31065,-2.13395 -1.80281,-0.20456 -3.62787,-0.0774 -5.42763,-0.32006 -0.13178,-2.1381 -0.16836,-4.28524 -0.0273,-6.42397 2.35706,-0.28813 4.77173,0.0841 7.10351,-0.46309 1.19178,-0.60009 1.38223,-2.08233 1.82022,-3.2161 0.97846,-3.41347 2.37615,-6.70562 4.24156,-9.71825 0.6847,-1.21393 0.70255,-2.84673 -0.261,-3.91915 -1.10803,-1.53931 -2.59504,-2.74456 -3.73437,-4.25691 1.4039,-1.55912 2.92844,-3.00474 4.5293,-4.3539 1.70549,1.41831 3.09013,3.21955 4.94531,4.45284 1.12813,0.85011 2.52937,0.14257 3.609,-0.42301 2.61922,-1.431 5.334865,-2.86129 8.273596,-3.58526 1.508166,-0.39911 3.467139,-0.5825 4.284408,-2.16273 0.797714,-1.64746 0.453374,-3.54523 0.559556,-5.31336 0.02592,-0.73213 -0.162817,-1.61195 0.167969,-2.24819 0.375726,-0.0818 0.765224,-0.03 1.146484,-0.0554 z m -55.55273,9.14317 c -2.49239,0.77962 -4.739446,2.1721 -7.066956,3.33708 -1.37119,0.75699 -2.8406,1.44357 -3.98773,2.52484 -1.3139,1.69593 -0.11956,4.43024 1.87109,4.88229 1.17313,0.26355 2.31219,-0.27057 3.35352,-0.75402 -1.55068,4.60742 -3.03197,9.27797 -3.77867,14.09642 -0.42967,4.5152 -0.4163,9.08692 0.11138,13.59226 1.62679,12.57395 6.78711,24.68339 14.870726,34.38498 8.63703,10.53585 20.37315,18.46767 33.37992,22.2565 5.49113,1.63451 11.189193,2.62491 16.922208,2.64643 1.947525,0.0253 3.91619,0.10743 5.849533,-0.14399 1.964379,-0.4656 2.908015,-3.07035 1.789313,-4.74564 -0.695594,-1.13441 -2.090968,-1.46269 -3.325515,-1.42133 -4.227471,-0.22462 -8.443812,-0.2987 -12.626265,-1.04736 -9.350814,-1.56195 -18.394764,-5.56192 -26.061844,-11.23874 -10.28368,-7.53459 -18.05238,-18.47682 -21.94524,-30.70653 -1.43368,-4.60061 -2.590416,-9.55058 -2.661696,-14.43387 -0.16501,-3.91983 -0.26333,-7.92601 0.827316,-11.7316 0.80254,-3.32091 1.7813,-6.57946 2.87148,-9.79368 0.68482,1.41398 1.27369,3.29468 2.97654,3.71085 1.89206,0.52151 4.26164,-1.04801 4.00198,-3.15671 -0.96043,-3.2754 -2.46531,-6.35299 -3.93939,-9.41474 -0.69514,-1.30129 -1.72121,-3.06791 -3.4317,-2.84344 z m 118.33984,2.62223 c -1.706411,0.13684 -3.427716,1.76658 -2.98947,3.60003 0.482191,2.758 1.677308,5.3224 2.234399,8.06542 1.135259,4.52694 1.830218,9.16044 1.74807,13.81897 0.03842,3.99752 -0.146089,8.02866 -1.041557,11.87134 -1.627282,7.75354 -4.849967,15.03537 -9.245654,21.55801 -4.9436522,7.29412 -11.39198624,13.69588 -18.7819602,18.51221 -2.456308,1.56219 -5.0096138,2.95987 -7.5859378,4.30639 0.553852,-1.11825 0.43916,-2.64623 -0.511698,-3.47237 -1.319265,-1.51077 -4.04493,-1.30191 -5.014363,0.50708 -1.909444,2.78245 -3.877746,5.554 -5.383835,8.58604 -0.570947,1.22664 -0.326968,2.93346 0.958725,3.59168 2.331259,1.43871 4.894064,2.44293 7.376807,3.57822 1.100235,0.41351 2.173036,1.04184 3.33413,1.20314 2.437196,-0.0756 4.0481278,-3.44811 2.398438,-5.34539 -0.751478,-0.76484 -1.733384,-1.22395 -2.691407,-1.66042 6.7677358,-3.0386 13.1436228,-6.99824 18.7474018,-11.91008 10.8003942,-9.35852 19.0249272,-21.99286 22.3142732,-36.07289 2.647905,-11.21139 2.094263,-23.12191 -1.284262,-34.11099 -0.602738,-1.92258 -1.158042,-3.95318 -2.405386,-5.56327 -0.538242,-0.63955 -1.321099,-1.1248 -2.176714,-1.06312 z m -62.355469,6.75447 c -7.868532,0.20131 -15.246531,5.61781 -18.077181,13.02946 -1.71403,4.34897 -1.8326,9.31177 -0.46369,13.77165 2.25408,6.89203 8.237233,12.37589 15.250877,13.90217 8.273009,1.92957 17.56465,-1.83388 22.073931,-9.16287 3.105454,-4.90046 4.113692,-11.18263 2.358052,-16.76609 -0.491614,-1.72309 -1.029511,-3.57681 -2.32363,-4.86329 -1.384287,-0.99146 -3.56749,-0.61799 -4.571695,0.75016 -0.973555,1.61294 -0.122754,3.53096 0.395744,5.1473 0.580282,1.5651 0.982012,3.21613 0.855233,4.89898 -0.04317,4.37422 -2.203262,8.70728 -5.814408,11.1551 -2.22465,1.57167 -4.70987,2.43923 -7.421514,2.66177 -1.618712,0.13069 -3.469955,-0.0442 -4.990234,-0.48486 -4.159928,-1.12536 -7.663183,-4.3201 -9.276346,-8.35496 -1.27948,-2.79328 -1.39293,-6.04093 -0.48275,-8.96285 1.48231,-5.43688 6.479574,-9.61598 12.007517,-10.15064 1.561987,-0.29233 3.40313,0.009 4.803844,-0.98868 1.324019,-0.9869 1.89147,-3.22036 0.556927,-4.44188 -1.271266,-1.2971 -3.229778,-1.14207 -4.880677,-1.14047 z m 9.216797,1.96122 c -2.257026,0.2034 -3.608191,3.23211 -2.207426,5.05947 0.976843,1.32758 2.569765,1.98652 4.028767,2.60531 1.950571,0.60077 4.037338,-1.3118 3.763384,-3.32695 -0.112066,-1.7493 -1.695635,-2.79222 -3.039615,-3.60236 -0.780119,-0.422 -1.651684,-0.7499 -2.54511,-0.73547 z"
       inkscape:export-xdpi="36.664406"
       inkscape:export-ydpi="36.664406" />
  </g>
</svg>
